<mxfile host="app.diagrams.net" modified="2021-07-21T06:03:43.804Z" agent="5.0 (X11; Linux x86_64) AppleWebKit/537.36 (KHTML, like Gecko) Chrome/78.0.3904.108 Safari/537.36" etag="pA3OpR6gBJ9zJ5v1M0kX" version="14.9.0" type="github">
  <diagram id="PhVd3CjBd8i9hlmZsef8" name="第 1 页">
    <mxGraphModel dx="1394" dy="703" grid="1" gridSize="10" guides="1" tooltips="1" connect="1" arrows="1" fold="1" page="1" pageScale="1" pageWidth="1169" pageHeight="827" math="0" shadow="0">
      <root>
        <mxCell id="0" />
        <mxCell id="1" parent="0" />
        <mxCell id="NdRnNZSeFkDIrlHZlu09-1" value="" style="ellipse;html=1;shape=endState;fillColor=#000000;strokeColor=none;" vertex="1" parent="1">
          <mxGeometry x="450" y="430" width="30" height="30" as="geometry" />
        </mxCell>
        <mxCell id="NdRnNZSeFkDIrlHZlu09-2" value="" style="ellipse;html=1;shape=endState;fillColor=#000000;" vertex="1" parent="1">
          <mxGeometry x="500" y="190" width="30" height="30" as="geometry" />
        </mxCell>
      </root>
    </mxGraphModel>
  </diagram>
</mxfile>
